<svg width="1000" height="1000" viewBox="0 0 1000 1000" fill="none" xmlns="http://www.w3.org/2000/svg">
<path fill-rule="evenodd" clip-rule="evenodd" d="M61.641 383.325L383.325 61.6412C414.268 30.6978 456.237 13.314 499.997 13.314C543.758 13.314 585.726 30.6978 616.67 61.6412L938.354 383.325C969.297 414.269 986.681 456.237 986.681 499.998C986.681 543.758 969.297 585.727 938.354 616.67L616.67 938.354C585.726 969.298 543.758 986.682 499.997 986.682C456.237 986.682 414.268 969.298 383.325 938.354L61.641 616.67C30.6976 585.727 13.3137 543.758 13.3137 499.998C13.3137 456.237 30.6976 414.269 61.641 383.325V383.325ZM335.582 463.705L463.135 336.152C467.871 331.416 473.493 327.66 479.681 325.097C485.868 322.534 492.5 321.215 499.197 321.215C505.895 321.215 512.527 322.534 518.714 325.097C524.902 327.66 530.524 331.416 535.26 336.152L662.813 463.705C667.549 468.441 671.305 474.063 673.868 480.251C676.431 486.438 677.751 493.07 677.751 499.768C677.751 506.465 676.431 513.097 673.868 519.285C671.305 525.472 667.549 531.094 662.813 535.83L535.26 663.383C530.524 668.119 524.902 671.876 518.714 674.439C512.527 677.002 505.895 678.321 499.197 678.321C492.5 678.321 485.868 677.002 479.681 674.439C473.493 671.876 467.871 668.119 463.135 663.383L335.582 535.83C330.846 531.094 327.09 525.472 324.527 519.285C321.964 513.097 320.644 506.465 320.644 499.768C320.644 493.07 321.964 486.438 324.527 480.251C327.09 474.063 330.846 468.441 335.582 463.705Z" fill="rgb(200, 200, 200)" stroke="#C8C8C8"/>
</svg>