<svg id="white" xmlns="http://www.w3.org/2000/svg" width="1920" height="1080" viewBox="0 0 1920 1080">
  <defs>
    <style>
      .cls-1 {
        fill: #fff;
        fill-rule: evenodd;
      }
    </style>
  </defs>
  <path id="QUBIC_TEXT_WHITE" data-name="QUBIC TEXT WHITE" class="cls-1" d="M943.564,644.123h-80.9v-0.771a94.243,94.243,0,0,0,26.774-18.514,109.491,109.491,0,0,0,19.647-26.227,130.553,130.553,0,0,0,11.942-31.434,145.158,145.158,0,0,0,4.045-34.134q0-29.307-10.979-54.19a136.2,136.2,0,0,0-29.856-43.2,138.66,138.66,0,0,0-44.109-28.735A140.486,140.486,0,0,0,786,396.508q-30.048,0-55.666,10.606a135.941,135.941,0,0,0-74.543,74.053Q645,506.823,645.007,536.9q0,30.473,11.172,56.119a135.47,135.47,0,0,0,30.433,44.161,139.743,139.743,0,0,0,45.073,28.927,144.789,144.789,0,0,0,54.7,10.414H943.564v-32.4Zm-199.552-10.8a96.888,96.888,0,0,1-31.781-23.142,104.919,104.919,0,0,1-20.61-34.327,119.508,119.508,0,0,1-7.32-42.04,103.73,103.73,0,0,1,7.7-39.92A101.954,101.954,0,0,1,713.194,461.3a100.458,100.458,0,0,1,31.782-21.984,97.364,97.364,0,0,1,39.871-8.1,98.638,98.638,0,0,1,93.42,62.868,108.643,108.643,0,0,1,7.512,40.5,119.654,119.654,0,0,1-7.32,42.041,102.834,102.834,0,0,1-20.61,34.133,95.414,95.414,0,0,1-31.974,22.756,99.956,99.956,0,0,1-41.028,8.293A96.726,96.726,0,0,1,744.012,633.324ZM977.465,403.45V576.627q0,23.919,8.09,43.39a103.069,103.069,0,0,0,22.345,33.748,98.548,98.548,0,0,0,33.51,21.985,116.054,116.054,0,0,0,83.21,0,98.589,98.589,0,0,0,33.52-21.985,103.1,103.1,0,0,0,22.34-33.748q8.1-19.472,8.09-43.39V403.45h-36.98V570.841a107.1,107.1,0,0,1-3.47,26.42,76.51,76.51,0,0,1-11.55,25.263,62.848,62.848,0,0,1-21.19,18.9q-13.11,7.332-32.36,7.328-19.275,0-32.36-7.328a62.754,62.754,0,0,1-21.19-18.9,76.735,76.735,0,0,1-11.56-25.263,107.551,107.551,0,0,1-3.46-26.42V403.45H977.465ZM1253.68,676.521h93.61a133.938,133.938,0,0,0,37.37-5.014,95.528,95.528,0,0,0,30.43-14.656,70.141,70.141,0,0,0,20.61-23.72q7.515-14.076,7.51-32.591a71.092,71.092,0,0,0-4.62-25.842,70.356,70.356,0,0,0-12.52-21.02,63.311,63.311,0,0,0-18.68-14.657,57.646,57.646,0,0,0-23.12-6.363v-0.772q20.805-6.942,33.9-21.792t13.1-38.376q0-17.357-6.36-30.277a58.414,58.414,0,0,0-17.33-21.213,77.592,77.592,0,0,0-26.2-12.535,122.3,122.3,0,0,0-32.93-4.243h-94.77V676.521Zm36.98-240.673h58.17q22.335,0,32.75,11.957a41.548,41.548,0,0,1,10.4,28.156q0,11.19-4.05,18.9a36.036,36.036,0,0,1-10.98,12.727,43.924,43.924,0,0,1-16.18,7.136,87.5,87.5,0,0,1-19.64,2.121h-50.47v-81Zm0,113.394h54.7q26.97,0,42.77,12.15,15.78,12.148,15.79,36.448,0,14.663-6.16,23.527a47.527,47.527,0,0,1-15.03,14.078,55.847,55.847,0,0,1-19.07,6.942,112.305,112.305,0,0,1-18.68,1.736h-54.32V549.242Zm205.72,127.279h36.98V403.45h-36.98V676.521Zm327.83-237.587a98.875,98.875,0,0,0-42.57-32.013,141.322,141.322,0,0,0-52.97-10.413q-31.59,0-57.78,10.8a129.983,129.983,0,0,0-44.88,30.277,138.327,138.327,0,0,0-29.09,46.283q-10.395,26.813-10.4,58.433a141.886,141.886,0,0,0,81.86,128.821q26.01,12.34,58.37,12.343,23.49,0,41.41-5.979a144.754,144.754,0,0,0,30.63-13.885,108.454,108.454,0,0,0,20.41-15.813,124.358,124.358,0,0,0,10.79-12.149l-31.2-23.528a88.588,88.588,0,0,1-30.05,27q-17.73,9.645-41.22,9.642-23.895,0-42.76-8.485a93.751,93.751,0,0,1-31.98-23.142,102.242,102.242,0,0,1-20.03-33.941,119.947,119.947,0,0,1-6.94-40.883,126.672,126.672,0,0,1,7.32-43.391,108.266,108.266,0,0,1,20.61-35.291,96.223,96.223,0,0,1,31.98-23.72q18.675-8.678,41.8-8.678a87.089,87.089,0,0,1,36.59,8.1,76.279,76.279,0,0,1,29.28,23.141Z"/>
  <path id="inner" class="cls-1" d="M124.214,481.5L285.49,320.227a82.724,82.724,0,0,1,116.988,0L563.754,481.5a82.722,82.722,0,0,1,0,116.988L402.478,759.768a82.724,82.724,0,0,1-116.988,0L124.214,598.492A82.723,82.723,0,0,1,124.214,481.5Zm137.341,40.3L325.5,457.853a25.57,25.57,0,0,1,36.16,0L425.612,521.8a25.57,25.57,0,0,1,0,36.16l-63.949,63.949a25.57,25.57,0,0,1-36.16,0l-63.948-63.949A25.568,25.568,0,0,1,261.555,521.8Z"/>
</svg>
